<?xml version="1.0" encoding="UTF-8"?> <!-- Generator: Adobe Illustrator 25.3.1, SVG Export Plug-In . SVG Version: 6.00 Build 0) --> <svg xmlns="http://www.w3.org/2000/svg" xmlns:xlink="http://www.w3.org/1999/xlink" version="1.1" id="Layer_1" x="0px" y="0px" viewBox="0 0 356 50" style="enable-background:new 0 0 356 50;" xml:space="preserve"> <style type="text/css"> .st0{fill:#FFFFFF;} .st1{fill:#FFCF01;} </style> <path class="st0" d="M83.29,0.1h1.07V49.7h-1.07V0.1L83.29,0.1z M83.29,0.1"></path> <path class="st0" d="M329.99,49.75v-0.49c0.63-0.04,1.1-0.09,1.1-0.6c0-0.18-0.06-0.38-0.1-0.55l-0.27-0.93h-3.23l-0.29,0.79 c-0.06,0.2-0.11,0.38-0.11,0.57c0,0.65,0.68,0.69,1.24,0.72v0.49h-3.77v-0.49c0.96-0.04,1.27-0.23,1.62-1.19l2.48-6.8l-0.15-0.22 c1.07-0.35,1.36-0.51,1.82-0.84c0.18,0.62,0.21,0.7,0.41,1.35l2.04,6.23c0.36,1.11,0.53,1.37,1.5,1.48v0.49H329.99L329.99,49.75z M329.16,42.39l-1.35,3.8h2.64L329.16,42.39L329.16,42.39z M297.24,47.71c-0.4,0.66-1.38,2.29-3.91,2.29 c-2.76,0-4.55-2.04-4.55-4.72c0-2.48,1.52-4.92,4.62-4.92c1.63,0,2.49,0.68,3.03,1.1l0.62-0.57l0.05,2.78l-0.41,0.08 c-0.15-0.53-0.39-0.96-0.99-1.62c-0.28-0.29-0.95-0.9-1.92-0.9c-1.66,0-2.96,1.35-2.96,3.73c0,2.01,1.07,3.91,3.19,3.91 c1.6,0,2.21-0.89,2.69-1.58L297.24,47.71L297.24,47.71z M298.78,49.75v-0.49c1.05-0.09,1.05-0.32,1.05-1.19 c0.01-0.32,0.01-0.65,0.01-0.98v-3.85c0-0.6,0-1.19-0.04-1.48c-0.06-0.55-0.32-0.62-1.03-0.69v-0.49h3.93v0.49 c-0.77,0.08-1.05,0.11-1.14,0.61c-0.07,0.29-0.08,0.97-0.08,1.52v1.26c0.79,0.04,1.35,0.06,2.11,0.06c0.78,0,1.39-0.02,2.18-0.06 v-1.54c-0.01-1.67-0.03-1.75-1.28-1.86v-0.49h3.98v0.49c-1.07,0.13-1.07,0.15-1.07,1.89v3.87c0,0.37,0.01,1.52,0.06,1.8 c0.06,0.48,0.34,0.57,1.01,0.63v0.49h-3.97v-0.49c0.92-0.11,1.16-0.13,1.24-0.77c0.03-0.26,0.03-0.61,0.03-1.27v-1.68 c-0.73-0.03-1.33-0.06-2.09-0.06c-0.79,0-1.41,0.02-2.2,0.06v1.68c0.01,1.91,0.03,1.91,1.22,2.04v0.49H298.78L298.78,49.75z M310.1,49.75v-0.49c0.9-0.12,1.08-0.22,1.09-1.18V46.9v-3.71c-0.01-1.91-0.01-1.96-1.09-2.12v-0.49h3.81v0.49 c-1.07,0.11-1.07,0.15-1.07,2.12v3.71c0,0.32,0.01,1.35,0.04,1.62c0.06,0.55,0.32,0.69,1.04,0.74v0.49H310.1L310.1,49.75z M283.97,49.75v-0.49c0.9-0.12,1.08-0.22,1.09-1.18V46.9v-3.71c-0.01-1.91-0.01-1.96-1.09-2.12v-0.49h3.81v0.49 c-1.08,0.11-1.08,0.15-1.08,2.12v3.71c0,0.32,0.02,1.35,0.04,1.62c0.06,0.55,0.32,0.69,1.04,0.74v0.49H283.97L283.97,49.75z M278.2,49.75v-0.49c1.16-0.08,1.16-0.13,1.17-1.83v-4.62l-3.21,7.05h-0.81l-2.95-7.14l-0.07,5.39c0,0.9,0.11,1.07,1.08,1.14v0.49 h-3.18v-0.49c0.74-0.04,1.03-0.14,1.07-0.77c0.03-0.24,0.06-1.02,0.08-1.52l0.13-3.84c0.01-0.3,0.01-0.74,0.01-1.07 c0-0.91-0.18-0.98-1-0.99v-0.49h2.89l2.86,6.96l3.14-6.96h2.79v0.54c-1.09,0.06-1.1,0.18-1.09,1.61v3.78c0,0.63,0.01,1.4,0.05,1.87 c0.05,0.68,0.32,0.81,1.04,0.87v0.49H278.2L278.2,49.75z M334.87,49.75v-0.49c0.76-0.04,1.04-0.05,1.14-0.57 c0.13-0.61,0.17-6.05,0.18-7c-0.5-0.46-0.71-0.56-1.33-0.61v-0.49h2.76c0.77,1.09,0.93,1.33,2.29,3.01l2.55,3.17v-4.11 c-0.01-1.45-0.05-1.54-1.5-1.59v-0.49h3.61v0.49c-1.01,0.01-1.09,0.22-1.11,1.71l-0.13,7.08h-0.56l-0.81-1.02 c-0.41-0.52-0.84-1.04-1.25-1.54l-3.62-4.47v4.75c0,1.49,0.1,1.54,1.51,1.68v0.49H334.87L334.87,49.75z M258.36,45.16 c0,3.17-2.16,4.83-4.59,4.83c-2.67,0-4.76-1.92-4.76-4.85c0-2.5,1.68-4.76,4.63-4.75C256.42,40.4,258.36,42.37,258.36,45.16 L258.36,45.16z M253.78,49.14c0.52-0.01,1.25-0.27,1.82-1.13c0.64-1,0.78-1.91,0.74-3.11c-0.04-1.17-0.36-2.19-1.05-2.91 c-0.29-0.32-0.87-0.78-1.63-0.75c-0.77,0-1.33,0.48-1.62,0.8c-0.65,0.74-0.95,1.77-0.95,2.95c0,1.2,0.16,2.11,0.84,3.08 C252.53,48.91,253.26,49.14,253.78,49.14L253.78,49.14z M259.28,49.24v0.5h3.8v-0.5c-0.95-0.09-1.07-0.17-1.09-1.18l0.01-2.62h1.02 c1.02,0,1.57,0.1,1.63,1.12h0.44v-3.03h-0.44c-0.05,0.99-0.32,1.09-1.44,1.09h-1.21v-3.18c0.33-0.04,0.51-0.05,1.09-0.05 c1.8,0,2.37-0.01,2.62,1.42h0.45l-0.15-2.25h-6.72v0.49c0.66,0.07,0.95,0.11,1.04,0.53c0.06,0.29,0.08,1.3,0.08,1.66v3.21 c0,0.25-0.02,1.36-0.03,1.58C260.34,49.07,260.23,49.15,259.28,49.24L259.28,49.24z M180.45,49.68v-0.49 c0.9-0.12,1.08-0.22,1.09-1.19v-1.17v-3.71c-0.01-1.92-0.01-1.97-1.09-2.12v-0.5h3.81v0.5c-1.08,0.11-1.08,0.15-1.08,2.12v3.7 c0,0.32,0.01,1.35,0.04,1.62c0.06,0.56,0.32,0.69,1.04,0.74v0.49H180.45L180.45,49.68z M220.85,49.68v-0.49 c0.9-0.12,1.08-0.22,1.09-1.19v-1.17v-3.71c-0.01-1.92-0.01-1.97-1.09-2.12v-0.5h3.8v0.5c-1.07,0.11-1.07,0.15-1.07,2.12v3.7 c0,0.32,0.01,1.35,0.03,1.62c0.06,0.56,0.33,0.69,1.04,0.74v0.49H220.85L220.85,49.68z M169.29,49.68v-0.49 c0.76-0.04,1.04-0.06,1.14-0.57c0.13-0.62,0.17-6.06,0.18-7c-0.5-0.46-0.72-0.56-1.33-0.61v-0.5h2.76c0.77,1.09,0.93,1.34,2.28,3.02 l2.56,3.16v-4.1c-0.01-1.45-0.05-1.54-1.51-1.59v-0.5h3.61v0.5c-1,0.01-1.08,0.22-1.09,1.71l-0.13,7.08h-0.55l-0.81-1.03 c-0.42-0.53-0.84-1.04-1.25-1.55l-3.62-4.47v4.76c0,1.48,0.1,1.54,1.51,1.68v0.5L169.29,49.68L169.29,49.68z M213.27,46.83 l0.47-0.05c0.5,1.49,1.35,2.29,2.72,2.29c0.98,0,1.84-0.41,1.84-1.4c0-1.04-1-1.45-1.45-1.63c-0.36-0.14-0.75-0.26-1.12-0.4 c-0.75-0.27-2.17-0.86-2.17-2.64c0-1.71,1.35-2.68,2.92-2.68c0.61,0,1.33,0.13,2.11,0.63l0.56-0.4l0.29,2.72L219,43.36 c-0.15-0.6-0.27-0.88-0.63-1.35c-0.44-0.57-1.07-0.84-1.8-0.84c-0.98,0-1.54,0.47-1.54,1.2c0,1.09,1.08,1.45,2.11,1.79 c0.52,0.17,0.95,0.32,1.32,0.53c0.73,0.43,1.33,1.23,1.33,2.34c0,1.59-1.3,2.9-3.23,2.9c-1.25,0-2.02-0.49-2.37-0.73l-0.77-0.56 L213.27,46.83L213.27,46.83z M228.35,49.68V49.3c0.85-0.01,1.08-0.32,1.08-1.05V41.5h-1.14c-1.03,0-1.72-0.04-1.8,1.59H226 l0.08-2.57h8.33l0.08,2.57H234c-0.08-1.64-0.76-1.59-1.8-1.59h-1.14v6.75c0,0.73,0.23,1.04,1.07,1.05v0.39H228.35L228.35,49.68z M162.27,40.51v0.5c-1.21,0.09-1.21,0.13-1.23,2.08v2.16c0,1.12,0.02,2.08,0.61,2.94c0.47,0.68,1.26,0.77,1.66,0.77 c1.31,0,2.04-0.68,2.35-1.77c0.26-0.86,0.27-2.46,0.27-3.53c0-0.34,0-1.43-0.01-1.72c-0.06-0.84-0.49-0.86-1.3-0.93v-0.5h3.5v0.5 c-0.86-0.02-1.05,0.18-1.1,1.1c-0.01,0.21-0.12,2.76-0.13,3.15c-0.03,0.7-0.07,1.39-0.22,2.06c-0.62,2.46-3.03,2.6-3.66,2.6 c-0.51,0-1.55-0.08-2.4-0.65c-1.37-0.92-1.38-2.29-1.38-3.78V43.4c-0.01-0.98-0.01-1.42-0.03-1.66c-0.08-0.57-0.36-0.69-1.05-0.73 v-0.5H162.27L162.27,40.51z M194.78,40.51v0.5c-0.88,0.13-1,0.38-1.75,2.2l-2.79,6.66h-0.5l-2.51-6.77 c-0.62-1.74-0.7-1.94-1.62-2.09v-0.5h4.35v0.5c-0.74,0.03-1.22,0.05-1.22,0.58c0,0.26,0.06,0.49,0.32,1.25l1.59,4.67l1.87-4.83 c0.12-0.32,0.27-0.74,0.27-0.97c0-0.66-0.64-0.7-1.22-0.7v-0.5H194.78L194.78,40.51z M238.26,49.68v-0.49 c0.72-0.08,0.99-0.11,1.17-0.29c0.21-0.2,0.21-0.43,0.22-1.44v-1.61l-2.43-3.78c-0.67-0.99-0.67-1.02-1.56-1.07v-0.5h4.77v0.5 c-0.96,0.03-1.39,0.05-1.39,0.49c0,0.25,0.17,0.53,0.4,0.93l1.4,2.3l1.3-2.29c0.23-0.45,0.36-0.72,0.36-0.93 c0-0.44-0.38-0.45-1.02-0.49v-0.5h3.58v0.5c-0.92,0.03-1.19,0.3-2.24,2.01l-1.42,2.39v1.92c0,1.66,0.01,1.79,1.37,1.87v0.5 L238.26,49.68L238.26,49.68z M202.63,49.68c0-0.66,0.12-1.75,0.2-2.37h-0.44c-0.32,1.63-1.24,1.56-2.56,1.56 c-1.22,0-1.47-0.33-1.47-0.93v-2.56h0.99c1.13,0,1.45,0.1,1.45,1.12h0.44v-3.03h-0.44c-0.08,0.81-0.25,1.09-1.44,1.09h-1v-3.24h1.12 c1.57,0,2.12,0.11,2.33,1.36h0.42l-0.06-2.18h-6.53V41c0.66,0.07,0.95,0.11,1.04,0.54c0.06,0.28,0.07,1.29,0.07,1.66v3.23 c0,0.25-0.01,1.35-0.01,1.57c-0.03,1-0.15,1.09-1.09,1.18v0.5H202.63L202.63,49.68z M324.09,45.7v0.5 c-0.83,0.04-0.83,0.28-0.86,2.02v0.69c-0.71,0.45-1.73,1.08-3.53,1.08c-3.15,0-4.66-2.39-4.66-4.79c0-2.94,1.99-4.85,4.48-4.85 c1.56,0,2.47,0.59,3.21,1.05l0.48-0.55l0.07,2.87l-0.37,0.06c-0.19-0.54-0.47-1.17-1.16-1.87c-0.31-0.29-0.89-0.68-1.82-0.68 c-1.6,0-2.93,1.35-2.93,3.99c0,2.11,1.04,3.92,2.82,3.92c1.02,0,1.54-0.72,1.59-0.77c0.16-0.25,0.2-0.46,0.19-0.86 c-0.04-1.17-0.2-1.2-1.22-1.3v-0.5H324.09L324.09,45.7z M206.9,44.76c0.24,0.05,0.6,0.09,0.86,0.09c1.04,0.01,1.83-0.81,1.87-1.55 c0.06-1.07-0.48-1.99-2.17-1.99c-0.23,0-0.38,0.01-0.56,0.05V44.76L206.9,44.76z M206.9,46.76c0.01,2.11,0.01,2.39,1.12,2.41v0.51 h-3.83v-0.51c0.98-0.08,1.09-0.23,1.1-1.22c0.01-0.38,0.01-0.81,0.01-1.18v-3.32c0-1.1-0.01-1.49-0.05-1.79 c-0.07-0.5-0.31-0.6-1.07-0.67v-0.49l4.15,0.01c2.26,0,2.98,1.08,2.98,2.35c0,0.88-0.55,2.04-1.81,2.42l1.63,2.83 c0.58,1.08,0.9,1.33,1.63,1.43v0.31c-0.2,0.01-0.39,0.03-0.6,0.03c-1.73,0-2.44-0.6-3.17-2.14l-0.5-1.08 c-0.55-1.16-0.73-1.08-1.59-1.1L206.9,46.76L206.9,46.76z M206.9,46.76"></path> <path class="st1" d="M34.68,41.05l-14.2-19.41v14.12h5.65V49.7H0l0-13.95h5.29V14.05H0L0,0.1h20.52l14.16,19.55L48.83,0.1h20.52 v13.94h-5.3v21.71h5.3V49.7H43.23V35.75h5.64V21.63L34.68,41.05L34.68,41.05z M34.68,41.05"></path> <g> <path class="st0" d="M107.81,6.94c0-2.11-0.75-3.13-2.52-3.13s-2.52,1.02-2.52,3.13v36.07c0,2.11,0.75,3.13,2.52,3.13 s2.52-1.02,2.52-3.13v-6.87h4.49v7.01c0,4.15-2.31,6.81-7.01,6.81c-4.7,0-7.01-2.65-7.01-6.81V6.81c0-4.15,2.31-6.81,7.01-6.81 c4.7,0,7.01,2.65,7.01,6.81v6.47h-4.49V6.94z"></path> <path class="st0" d="M117.13,0.41h11.91v3.81h-7.42v17.9h7.08v3.81h-7.08v19.8h7.42v3.81h-11.91V0.41z"></path> <path class="st0" d="M134.69,0.41h11.91v3.81h-7.42v17.9h7.08v3.81h-7.08v19.8h7.42v3.81h-11.91V0.41z"></path> </g> <g> <path class="st0" d="M158.38,8.06c0-4.15,0.04-7.98,4.64-7.98c3.72,0,3.79,3.06,3.79,4.45h-1.36c0-1.7-0.47-3.3-2.43-3.3 c-3.23,0-3.28,2.74-3.28,6.83s0.04,6.83,3.28,6.83c1.77,0,2.43-1.57,2.45-3.55h1.45c0,1.11-0.26,4.7-3.89,4.7 C158.42,16.03,158.38,12.2,158.38,8.06z"></path> <path class="st0" d="M170.7,0.37v15.36h-1.36V0.37H170.7z"></path> <path class="st0" d="M181.33,0.37h1.32l-4.26,15.36h-1.7l-4.28-15.36h1.45l3.64,13.75h0.04L181.33,0.37z"></path> <path class="st0" d="M185.76,0.37v15.36h-1.36V0.37H185.76z"></path> <path class="st0" d="M188.72,15.74V0.37h1.36v14.21h5.09v1.15H188.72z"></path> <path class="st0" d="M209.8,14.2c-1.26,1.51-2.64,1.83-4.51,1.83c-2.02,0-4.06-1.02-4.06-4.32c0-2.38,1.02-3.09,2.81-4.43 c-1.04-1.28-1.96-2.06-1.96-3.83c0-2.36,1.17-3.38,3.53-3.38c1.91,0,3.13,0.77,3.13,3.26c0,2.04-1.38,2.96-2.81,4.15l3.62,4.38 c0.36-1.15,0.55-3.57,0.55-4.74h1.28c0,1.17-0.11,3.89-0.89,5.92l2.21,2.7h-1.74L209.8,14.2z M204.85,8.2 c-1.43,1.02-2.26,1.66-2.26,3.49c0,2.17,1.19,3.19,3.28,3.19c1.21,0,2.49-0.64,3.06-1.74L204.85,8.2z M207.38,3.25 c0-1.23-0.51-2.02-1.87-2.02c-1.23,0-2.06,0.68-2.06,1.96c0,1.53,0.74,2.28,1.68,3.38C206.29,5.72,207.38,4.82,207.38,3.25z"></path> <path class="st0" d="M225.97,0.37v1.15h-5.6v5.74h5.34v1.15h-5.34v6.17h5.74v1.15h-7.11V0.37H225.97z"></path> <path class="st0" d="M228.36,15.74V0.37h2.09l6.23,13.49l0.04-0.04V0.37h1.36v15.36h-2.06L229.76,2.1l-0.04,0.04v13.6H228.36z"></path> <path class="st0" d="M248.68,0.37H250l-4.26,15.36h-1.7l-4.28-15.36h1.45l3.64,13.75h0.04L248.68,0.37z"></path> <path class="st0" d="M253.1,0.37v15.36h-1.36V0.37H253.1z"></path> <path class="st0" d="M257.44,8.29v7.45h-1.36V0.37h4.23c2.96,0,3.7,0.98,3.7,3.68c0,1.91-0.32,3.19-2.38,3.66v0.04 c2.15,0.45,2.28,0.7,2.28,6.19c0,0.6,0.11,1.19,0.15,1.79h-1.3c-0.13-0.45-0.19-3-0.21-3.83c-0.02-0.66,0.43-3.62-2.53-3.62H257.44 z M257.44,7.14h2.21c2.04,0,3-0.53,3-3.11c0-2.11-0.83-2.51-2.43-2.51h-2.79V7.14z"></path> <path class="st0" d="M271.04,0.08c4.6,0,4.64,3.83,4.64,7.98s-0.04,7.98-4.64,7.98c-4.6,0-4.64-3.83-4.64-7.98 S266.44,0.08,271.04,0.08z M271.04,14.89c3.23,0,3.28-2.74,3.28-6.83s-0.04-6.83-3.28-6.83c-3.23,0-3.28,2.74-3.28,6.83 S267.8,14.89,271.04,14.89z"></path> <path class="st0" d="M278.44,15.74V0.37h2.09l6.23,13.49l0.04-0.04V0.37h1.36v15.36h-2.06L279.85,2.1l-0.04,0.04v13.6H278.44z"></path> <path class="st0" d="M291.17,15.74V0.37h2.32l4.53,13.87h0.04l4.47-13.87h2.17v15.36h-1.36V1.69h-0.04l-4.51,14.04h-1.57 l-4.64-14.04h-0.04v14.04H291.17z"></path> <path class="st0" d="M314.62,0.37v1.15h-5.6v5.74h5.34v1.15h-5.34v6.17h5.74v1.15h-7.11V0.37H314.62z"></path> <path class="st0" d="M317,15.74V0.37h2.09l6.23,13.49l0.04-0.04V0.37h1.36v15.36h-2.06L318.4,2.1l-0.04,0.04v13.6H317z"></path> <path class="st0" d="M332.25,1.52h-3.74V0.37h8.85v1.15h-3.74v14.21h-1.36V1.52z"></path> <path class="st0" d="M343.19,0.37l4.79,15.36h-1.43l-1.23-4.04h-6.02l-1.21,4.04h-1.36l4.85-15.36H343.19z M344.96,10.54 l-2.62-8.68h-0.04l-2.6,8.68H344.96z"></path> <path class="st0" d="M349.56,15.74V0.37h1.36v14.21H356v1.15H349.56z"></path> <path class="st0" d="M165.72,20.68v1.15h-5.6v5.74h5.34v1.15h-5.34v6.17h5.74v1.15h-7.11V20.68H165.72z"></path> <path class="st0" d="M168.1,36.04V20.68h2.09l6.23,13.49l0.04-0.04V20.68h1.36v15.36h-2.06L169.5,22.4l-0.04,0.04v13.6H168.1z"></path> <path class="st0" d="M188.1,29.17h-3.11v-1.15h4.47v7.68c-1.36,0.43-2.79,0.64-4.23,0.64c-5,0-4.64-5-4.64-7.98 s-0.36-7.98,4.64-7.98c2.94,0,4.45,1.26,4.38,4.23h-1.36c0-2.02-0.87-3.09-3.02-3.09c-3.32,0-3.28,2.96-3.28,6.83 s-0.04,6.83,3.28,6.83c1.17,0,2.15-0.17,2.87-0.45V29.17z"></path> <path class="st0" d="M194.04,20.68v15.36h-1.36V20.68H194.04z"></path> <path class="st0" d="M197.21,36.04V20.68h2.09l6.23,13.49l0.04-0.04V20.68h1.36v15.36h-2.06l-6.26-13.64l-0.04,0.04v13.6H197.21z"></path> <path class="st0" d="M216.97,20.68v1.15h-5.6v5.74h5.34v1.15h-5.34v6.17h5.74v1.15h-7.11V20.68H216.97z"></path> <path class="st0" d="M226.27,20.68v1.15h-5.6v5.74h5.34v1.15h-5.34v6.17h5.74v1.15h-7.11V20.68H226.27z"></path> <path class="st0" d="M229.82,28.59v7.45h-1.36V20.68h4.23c2.96,0,3.7,0.98,3.7,3.68c0,1.91-0.32,3.19-2.38,3.66v0.04 c2.15,0.45,2.28,0.7,2.28,6.19c0,0.6,0.11,1.19,0.15,1.79h-1.3c-0.13-0.45-0.19-3-0.21-3.83c-0.02-0.66,0.43-3.62-2.53-3.62H229.82 z M229.82,27.44h2.21c2.04,0,3-0.53,3-3.11c0-2.11-0.83-2.51-2.43-2.51h-2.79V27.44z"></path> <path class="st0" d="M240.55,20.68v15.36h-1.36V20.68H240.55z"></path> <path class="st0" d="M243.72,36.04V20.68h2.09l6.23,13.49l0.04-0.04V20.68h1.36v15.36h-2.06l-6.26-13.64l-0.04,0.04v13.6H243.72z"></path> <path class="st0" d="M263.72,29.17h-3.11v-1.15h4.47v7.68c-1.36,0.43-2.79,0.64-4.23,0.64c-5,0-4.64-5-4.64-7.98 s-0.36-7.98,4.64-7.98c2.94,0,4.45,1.26,4.38,4.23h-1.36c0-2.02-0.87-3.09-3.02-3.09c-3.32,0-3.28,2.96-3.28,6.83 s-0.04,6.83,3.28,6.83c1.17,0,2.15-0.17,2.87-0.45V29.17z"></path> </g> </svg> 